<?xml version="1.0" standalone="no"?>
<!DOCTYPE svg PUBLIC "-//W3C//DTD SVG 20010904//EN"
 "http://www.w3.org/TR/2001/REC-SVG-20010904/DTD/svg10.dtd">
<svg version="1.0" xmlns="http://www.w3.org/2000/svg"
 width="526.000000pt" height="498.000000pt" viewBox="0 0 526.000000 498.000000"
 preserveAspectRatio="xMidYMid meet">

<g transform="translate(0.000000,498.000000) scale(0.100000,-0.100000)"
fill="#000000" stroke="none">
<path d="M2825 4774 c-422 -46 -757 -204 -1063 -500 l-97 -94 -312 0 -312 0
-20 -26 c-21 -26 -21 -34 -21 -708 l0 -682 -83 12 c-45 7 -114 13 -153 13 -38
1 -75 6 -80 11 -15 15 -206 50 -273 50 -64 0 -100 -20 -125 -68 -8 -15 -21
-85 -30 -157 -9 -71 -29 -236 -46 -365 -40 -310 -40 -309 10 -361 l40 -42 99
6 c55 3 116 13 135 21 20 8 42 13 49 10 17 -6 309 23 362 36 22 5 52 10 68 10
27 0 27 0 27 -70 0 -652 427 -1259 1055 -1500 33 -13 63 -26 67 -29 4 -4 0
-50 -9 -104 -16 -96 -16 -99 4 -125 38 -52 71 -44 277 62 179 94 185 96 251
96 73 0 48 11 363 -156 73 -39 122 -44 152 -14 24 24 25 70 6 178 -12 71 -12
74 8 82 89 34 122 49 206 93 295 154 554 417 702 712 94 186 155 410 164 605
9 164 2 158 171 155 76 -1 147 -6 158 -10 11 -4 36 -15 55 -23 19 -8 78 -17
132 -19 85 -5 102 -3 142 16 59 29 99 76 126 148 19 50 21 74 18 183 -3 110
-6 132 -29 180 -26 55 -26 55 -7 91 14 27 20 67 24 160 6 142 -4 171 -69 202
-88 42 -330 0 -386 -66 -10 -13 -18 -13 -43 -5 -19 7 -66 8 -127 4 -53 -4
-109 -8 -126 -9 l-30 -2 -5 688 c-6 795 7 717 -115 717 l-71 0 -12 76 c-23
149 -122 289 -245 347 -134 63 -344 123 -534 153 -99 15 -373 26 -448 18z
m298 -221 c31 -27 56 -51 56 -54 1 -4 -13 -9 -30 -13 -27 -5 -38 0 -81 39 -60
54 -91 64 -118 40 -27 -25 -25 -51 6 -80 28 -26 27 -27 -27 -39 -18 -4 -31 0
-40 10 -24 29 -98 66 -119 59 -33 -10 -44 -42 -25 -71 8 -13 21 -24 27 -24 19
0 -3 -16 -39 -28 -27 -9 -36 -7 -70 17 -52 38 -67 42 -92 25 -24 -18 -28 -56
-6 -74 23 -19 19 -26 -26 -43 -41 -16 -42 -16 -85 14 -56 38 -94 37 -109 -5
-8 -25 -6 -31 19 -53 16 -13 27 -25 25 -27 -20 -17 -69 -34 -74 -26 -10 16
-83 60 -99 60 -22 0 -46 -29 -46 -55 0 -16 10 -30 30 -42 17 -9 30 -20 30 -23
0 -3 -16 -15 -36 -28 l-36 -23 -33 25 c-51 39 -79 47 -104 30 -32 -23 -27 -57
14 -89 l36 -26 -102 -82 c-57 -45 -115 -92 -129 -104 l-27 -22 -48 60 -47 60
38 47 c70 88 239 247 334 314 172 122 378 210 577 247 136 26 154 27 289 29
l111 2 56 -47z m217 11 c45 -7 100 -37 100 -55 0 -5 -28 -9 -62 -9 -56 0 -65
3 -95 32 -39 37 -42 52 -10 45 12 -4 42 -9 67 -13z m218 -192 c58 -67 232
-476 232 -545 0 -13 -16 -56 -36 -97 l-36 -75 -53 160 c-29 88 -64 185 -77
215 -69 150 -95 202 -144 282 -29 47 -50 88 -48 91 3 3 35 2 72 0 57 -4 71 -9
90 -31z m-222 -72 c71 -109 154 -276 204 -413 42 -116 100 -314 100 -343 0
-59 -234 -309 -400 -426 -114 -81 -270 -163 -402 -212 -123 -46 -295 -89 -311
-79 -6 4 -70 10 -141 13 l-129 5 -52 155 c-88 260 -190 497 -294 680 l-43 75
44 38 c93 81 208 168 217 163 5 -3 12 -18 16 -33 14 -59 57 -80 90 -43 15 17
16 25 6 62 -25 86 -25 84 8 108 40 28 58 21 67 -25 4 -22 16 -42 30 -52 22
-14 26 -14 49 1 28 19 31 43 10 101 -8 22 -15 45 -15 51 0 10 69 48 76 42 1
-2 11 -25 21 -52 22 -60 42 -74 77 -58 30 14 33 44 11 107 -8 22 -15 43 -15
46 0 6 92 49 104 49 3 0 15 -27 27 -60 25 -68 54 -86 89 -55 25 22 25 32 1 99
l-19 54 43 12 c53 15 62 10 75 -40 18 -66 80 -89 99 -37 5 12 4 37 -1 57 -16
62 -16 63 31 73 38 8 47 6 58 -9 7 -10 13 -25 13 -34 0 -24 29 -60 49 -60 35
0 54 35 47 84 -7 43 -6 45 21 49 72 11 70 12 139 -93z m436 69 c43 -9 58 -17
71 -38 30 -51 39 -118 27 -213 -15 -129 -19 -132 -52 -42 -16 43 -53 126 -81
184 -28 58 -53 108 -55 113 -5 10 26 9 90 -4z m-2068 -550 l38 -52 -71 -71
-72 -71 -29 35 -29 35 26 45 c39 67 83 130 91 130 4 0 25 -23 46 -51z m162
-264 c35 -66 93 -191 129 -279 63 -152 158 -416 152 -422 -6 -6 -190 15 -197
23 -4 4 -26 64 -50 133 -51 148 -111 286 -186 429 l-55 104 29 31 c16 17 44
48 62 69 19 20 38 36 43 34 5 -1 38 -57 73 -122z m-352 20 c17 -26 16 -27 -55
-115 -40 -50 -74 -90 -75 -90 -5 0 28 74 67 153 22 42 41 77 43 77 2 0 11 -11
20 -25z m155 -267 c64 -131 124 -280 156 -384 l12 -41 -46 4 c-108 10 -203 48
-326 133 -54 37 -81 65 -101 103 -15 27 -13 30 37 100 93 128 174 226 186 227
7 0 44 -64 82 -142z m2381 -536 l0 -37 -96 -2 -95 -2 3 32 3 32 85 10 c47 6
88 9 93 7 4 -2 7 -20 7 -40z m-2376 9 c3 -5 -4 -12 -17 -15 -21 -6 -21 -7 -4
-20 21 -16 22 -26 2 -26 -8 0 -15 -9 -15 -20 0 -11 -4 -20 -10 -20 -5 0 -10
25 -10 55 0 52 1 55 24 55 14 0 27 -4 30 -9z m1896 -47 c0 -25 4 -43 9 -39 5
3 12 1 16 -5 4 -6 -6 -10 -24 -10 -30 0 -31 1 -31 48 0 27 3 52 6 55 14 14 24
-6 24 -49z m-1770 -6 c6 -24 13 -49 15 -55 2 -7 -2 -13 -10 -13 -8 0 -15 5
-15 11 0 7 -10 9 -25 5 -29 -7 -33 9 -14 63 15 44 36 39 49 -11z m1650 -2 c0
-34 4 -46 18 -49 16 -4 16 -4 0 -12 -33 -14 -48 2 -48 48 0 24 3 47 7 50 15
16 23 4 23 -37z m-1540 17 c8 -13 13 -14 16 -5 12 28 24 9 24 -38 0 -57 -19
-68 -37 -22 l-11 27 -1 -27 c-2 -53 -21 -28 -21 27 0 56 10 69 30 38z m1439
-39 c13 -51 9 -63 -14 -44 -12 10 -18 10 -30 0 -22 -19 -25 -11 -13 43 13 65
41 65 57 1z m1549 39 c24 -6 24 -7 17 -97 -4 -50 -9 -93 -12 -96 -2 -3 -35 -5
-71 -5 -65 0 -67 -1 -70 -27 -3 -22 6 -33 51 -67 92 -68 117 -119 117 -240 0
-99 -14 -147 -55 -188 -28 -28 -40 -33 -81 -33 -52 0 -135 19 -173 40 -23 12
-23 15 -17 88 4 42 9 79 12 81 2 3 28 -3 58 -13 64 -22 90 -19 94 12 4 23 -24
55 -105 119 -56 44 -73 85 -73 176 0 134 59 220 167 243 67 14 108 16 141 7z
m-2818 -13 c0 -5 -4 -10 -9 -10 -6 0 -11 -16 -13 -35 -4 -48 -23 -49 -25 -1 0
21 -7 42 -15 47 -8 6 0 9 25 9 20 0 37 -4 37 -10z m1137 -37 c-2 -46 -3 -48
-34 -51 l-33 -3 0 50 0 51 35 0 34 0 -2 -47z m-2695 21 c51 -8 96 -19 99 -22
4 -4 26 -140 48 -302 23 -162 44 -309 47 -327 5 -28 3 -32 -23 -37 -15 -3 -50
-6 -78 -8 l-50 -3 -11 50 c-10 49 -11 50 -44 47 -41 -3 -50 -15 -50 -68 0 -48
-2 -49 -93 -59 l-67 -7 6 58 c3 33 10 82 15 109 5 28 13 99 19 159 6 60 17
152 25 205 7 53 17 124 20 159 8 72 0 70 137 46z m1681 -32 c9 -45 2 -67 -12
-43 -6 8 -16 11 -31 6 -22 -7 -22 -5 -15 31 9 49 13 56 33 52 10 -2 20 -19 25
-46z m869 36 c-7 -7 -12 -29 -12 -50 0 -21 -4 -38 -10 -38 -5 0 -10 17 -10 38
0 21 -5 43 -12 50 -9 9 -4 12 22 12 26 0 31 -3 22 -12z m-732 -13 c0 -18 -12
-19 -28 -3 -9 9 -12 9 -12 -1 0 -7 9 -15 20 -18 13 -3 20 -14 20 -29 0 -20 -5
-24 -30 -24 -20 0 -30 5 -30 15 0 8 5 15 10 15 6 0 10 -5 10 -11 0 -5 5 -7 10
-4 17 10 11 25 -9 25 -20 0 -35 25 -25 41 9 16 64 11 64 -6z m114 1 c20 27 28
14 14 -27 -6 -19 -12 -40 -14 -46 -6 -22 -21 -14 -28 15 -3 15 -8 38 -12 52
-5 24 -5 24 10 6 16 -20 16 -20 30 0z m236 4 c0 -5 -9 -10 -20 -10 -11 0 -20
-4 -20 -10 0 -5 7 -10 15 -10 8 0 15 -4 15 -10 0 -5 -7 -10 -15 -10 -8 0 -15
-9 -15 -20 0 -11 -4 -20 -10 -20 -5 0 -10 23 -10 50 0 49 1 50 30 50 17 0 30
-4 30 -10z m125 -40 c0 -43 -1 -45 -30 -45 -27 0 -30 4 -33 33 -5 50 4 64 35
60 26 -3 28 -6 28 -48z m143 8 c-3 -40 -5 -43 -35 -46 -33 -3 -33 -3 -33 42 0
46 0 46 36 46 l35 0 -3 -42z m-2064 -23 c154 -23 208 -64 222 -168 8 -60 -1
-107 -31 -150 l-23 -36 33 -111 33 -111 -24 -10 c-14 -5 -54 -9 -89 -9 l-63 0
-19 83 -18 82 -5 -85 -5 -85 -70 -12 c-38 -7 -75 -10 -82 -8 -9 3 -12 84 -12
319 l-1 316 28 0 c15 0 71 -7 126 -15z m3638 -14 c32 -29 33 -31 33 -114 0
-73 -3 -90 -23 -117 l-23 -31 25 -29 c42 -50 48 -199 11 -257 -31 -47 -74 -56
-209 -43 -67 6 -129 13 -138 16 -16 5 -17 29 -15 287 l2 282 95 16 c52 9 121
17 152 18 50 1 62 -3 90 -28z m-3217 -39 l59 -7 18 -94 c9 -51 19 -99 21 -105
2 -6 12 33 22 87 10 54 23 100 29 103 6 2 52 -2 101 -9 l90 -12 7 -70 c3 -38
7 -140 8 -225 l2 -155 -76 -3 -75 -3 -3 63 -3 63 -12 -64 c-7 -35 -14 -66 -17
-68 -2 -2 -37 -7 -78 -10 l-73 -6 -16 84 -16 84 -2 -81 c-1 -94 -1 -94 -91
-94 l-59 0 5 198 c3 108 7 229 10 269 l6 72 41 -5 c23 -3 69 -8 102 -12z
m2764 -7 c49 -25 74 -89 79 -204 5 -114 -9 -186 -48 -240 -32 -44 -32 -45 23
-55 l37 -7 0 -53 c0 -29 -2 -55 -5 -58 -15 -14 -106 16 -165 56 -37 24 -82 47
-101 51 -113 25 -163 107 -163 270 0 143 40 212 147 247 62 21 148 18 196 -7z
m-2081 -50 c29 -9 52 -18 52 -21 0 -3 -5 -25 -11 -50 l-12 -45 -62 6 c-59 7
-64 6 -76 -16 -8 -14 -13 -54 -13 -92 0 -55 4 -71 21 -88 19 -19 25 -20 69
-11 57 13 68 6 78 -49 8 -46 1 -50 -120 -56 -165 -10 -208 35 -209 217 0 87 3
111 20 140 42 72 150 98 263 65z m1451 5 c52 -15 78 -45 86 -99 7 -51 -5 -94
-36 -127 -19 -20 -19 -21 11 -102 17 -46 30 -87 30 -93 0 -6 -32 -9 -82 -7
l-83 3 -20 57 c-28 79 -35 81 -35 9 l0 -62 -77 3 -78 3 -3 202 -2 203 22 5
c21 4 77 8 188 13 25 1 60 -2 79 -8z m-1221 -92 l3 -78 34 0 35 0 0 75 0 75
85 0 85 0 0 -195 0 -195 -85 0 -85 0 0 75 0 75 -35 0 -35 0 0 -75 c0 -86 -2
-88 -104 -83 l-58 3 -5 193 c-2 106 -1 197 2 203 4 6 39 9 83 7 l77 -3 3 -77z
m870 -120 l-3 -203 -24 -3 c-14 -2 -49 -1 -78 3 l-53 6 0 200 0 199 80 0 80 0
-2 -202z m-237 2 c25 -105 43 -192 41 -195 -3 -3 -38 -5 -78 -5 -71 0 -72 0
-83 30 -9 26 -15 30 -46 30 -31 0 -37 -4 -46 -30 -11 -30 -12 -30 -85 -30 -41
0 -74 2 -74 4 0 3 18 80 40 173 22 92 42 178 45 191 5 21 9 22 123 22 l118 0
45 -190z m-572 -359 c7 -5 10 -14 6 -20 -5 -9 -10 -9 -21 0 -11 9 -14 8 -14
-5 0 -10 8 -16 21 -16 16 0 20 -5 17 -27 -2 -23 -8 -28 -32 -28 -16 0 -31 6
-34 14 -3 10 1 12 17 8 14 -3 21 0 21 9 0 8 -7 14 -15 14 -24 0 -31 31 -10 46
22 16 25 17 44 5z m141 -1 c0 -5 -4 -10 -10 -10 -5 0 -10 -18 -10 -40 0 -22
-4 -40 -10 -40 -5 0 -10 18 -10 40 0 22 -5 40 -11 40 -5 0 -7 5 -4 10 3 6 17
10 31 10 13 0 24 -4 24 -10z m96 -12 l7 -23 8 23 c11 30 34 29 24 0 -4 -13 -9
-35 -12 -50 -6 -32 -33 -38 -33 -8 0 12 -7 34 -15 50 -13 26 -14 30 -1 30 8 0
18 -10 22 -22z m264 13 c0 -5 -10 -12 -22 -14 l-23 -4 24 -8 25 -8 -23 -9
c-23 -8 -20 -28 5 -28 8 0 14 -4 14 -10 0 -5 -13 -10 -30 -10 -29 0 -30 1 -30
50 0 49 1 50 30 50 17 0 30 -4 30 -9z m135 -46 c0 -49 -1 -50 -30 -50 -28 0
-30 3 -33 39 -5 54 3 68 35 64 26 -3 28 -6 28 -53z m-775 20 c21 -55 23 -75 7
-75 -8 0 -18 6 -21 13 -3 9 -9 7 -19 -5 -22 -28 -30 -21 -22 19 13 73 38 94
55 48z m880 -25 c0 -27 -4 -50 -10 -50 -5 0 -10 23 -10 50 0 28 5 50 10 50 6
0 10 -22 10 -50z m123 39 c12 0 16 -3 10 -6 -8 -3 -13 -23 -13 -50 0 -58 -24
-54 -28 5 -2 23 -7 42 -13 42 -5 0 -9 5 -9 11 0 6 7 8 16 5 9 -3 25 -6 37 -7z
m-1133 -54 c0 -59 -9 -68 -33 -32 l-16 22 0 -22 c-2 -47 -21 -21 -21 27 0 48
14 67 26 35 9 -22 24 -18 24 5 0 11 5 20 10 20 6 0 10 -25 10 -55z m1240 -1
c0 -40 -4 -55 -12 -52 -14 5 -23 70 -14 94 12 32 26 11 26 -42z m-1385 29 c-3
-10 -12 -35 -18 -55 -7 -21 -14 -38 -17 -38 -3 0 -10 15 -16 33 -6 17 -14 40
-19 50 -5 12 -3 17 9 17 9 0 16 -7 16 -15 0 -22 17 -18 23 5 3 11 11 20 17 20
7 0 10 -7 5 -17z m1530 -38 c0 -49 -1 -50 -30 -50 -29 0 -30 1 -33 53 l-3 53
33 -3 c33 -3 33 -4 33 -53z m-2011 -72 c4 -59 9 -118 12 -130 5 -20 1 -22 -63
-28 -141 -13 -127 -18 -134 50 -12 107 -10 195 4 200 16 7 160 22 168 18 3 -1
9 -51 13 -110z m344 62 c3 -50 -5 -62 -43 -66 -29 -4 -30 -2 -33 40 -5 62 2
73 40 69 31 -3 33 -6 36 -43z m1780 23 l11 -23 0 23 c2 47 26 16 29 -36 2 -41
0 -52 -12 -52 -8 0 -18 10 -22 22 l-7 23 -8 -23 c-14 -36 -29 -16 -29 39 0 54
18 67 38 27z m532 -105 c0 -27 -4 -53 -8 -60 -6 -9 -132 -33 -178 -33 -17 0
-19 64 -4 104 10 26 26 30 143 34 l47 2 0 -47z m-2604 -278 c31 -76 29 -79
-71 -91 -49 -7 -93 -9 -96 -5 -11 11 -39 104 -33 110 6 6 91 17 152 20 29 1
35 -3 48 -34z m1279 -354 c57 -116 85 -161 99 -165 12 -2 91 -14 176 -26 85
-12 157 -24 160 -26 2 -3 -54 -63 -125 -134 l-128 -129 27 -158 c15 -87 30
-166 33 -175 2 -10 -1 -18 -7 -18 -5 0 -79 37 -163 81 l-152 81 -158 -82 c-87
-45 -161 -79 -165 -76 -3 4 7 85 23 180 l29 173 -127 123 c-70 67 -127 126
-127 130 0 7 40 14 245 40 44 6 89 15 100 19 13 5 47 64 95 164 41 86 77 156
80 156 3 1 41 -71 85 -158z"/>
<path d="M1771 2714 c0 -11 3 -14 6 -6 3 7 2 16 -1 19 -3 4 -6 -2 -5 -13z"/>
<path d="M3315 2700 c-3 -5 -1 -10 4 -10 6 0 11 5 11 10 0 6 -2 10 -4 10 -3 0
-8 -4 -11 -10z"/>
<path d="M3176 2721 c-4 -7 -5 -15 -2 -18 9 -9 19 4 14 18 -4 11 -6 11 -12 0z"/>
<path d="M3170 2670 c0 -5 5 -10 10 -10 6 0 10 5 10 10 0 6 -4 10 -10 10 -5 0
-10 -4 -10 -10z"/>
<path d="M496 2324 c-7 -72 -5 -80 19 -71 12 5 14 17 9 64 -9 82 -20 85 -28 7z"/>
<path d="M2782 2670 c0 -19 2 -27 5 -17 2 9 2 25 0 35 -3 9 -5 1 -5 -18z"/>
<path d="M2923 2675 c0 -22 2 -30 4 -17 2 12 2 30 0 40 -3 9 -5 -1 -4 -23z"/>
<path d="M910 2435 c0 -53 3 -63 15 -59 24 10 19 124 -6 124 -5 0 -9 -29 -9
-65z"/>
<path d="M4360 2461 c0 -34 4 -61 9 -61 34 0 43 112 9 118 -16 3 -18 -5 -18
-57z"/>
<path d="M4360 2230 c0 -62 2 -70 19 -70 23 0 31 19 31 74 0 42 -13 66 -37 66
-9 0 -13 -19 -13 -70z"/>
<path d="M3919 2463 c-19 -23 -24 -199 -7 -233 30 -57 76 -29 85 52 14 139
-29 240 -78 181z"/>
<path d="M3320 2401 c0 -43 8 -54 29 -42 19 12 10 75 -11 79 -15 3 -18 -4 -18
-37z"/>
<path d="M2685 2327 c-8 -41 -4 -51 17 -45 11 2 12 10 2 43 l-11 40 -8 -38z"/>
<path d="M2890 1935 c0 -19 5 -35 10 -35 6 0 10 16 10 35 0 19 -4 35 -10 35
-5 0 -10 -16 -10 -35z"/>
<path d="M2120 1919 c0 -5 5 -7 10 -4 6 3 10 8 10 11 0 2 -4 4 -10 4 -5 0 -10
-5 -10 -11z"/>
<path d="M3360 1905 c0 -19 5 -35 10 -35 6 0 10 16 10 35 0 19 -4 35 -10 35
-5 0 -10 -16 -10 -35z"/>
<path d="M1690 1885 c0 -19 5 -35 10 -35 6 0 10 16 10 35 0 19 -4 35 -10 35
-5 0 -10 -16 -10 -35z"/>
</g>
</svg>
